Coordinates
version=1
nRows=26
nColumns=22
inDegrees=yes

Units are S.I. units (second, meters, Newtons, ...)
If the header above contains a line with 'inDegrees', this indicates whether rotational values are in degrees (yes) or radians (no).

endheader
time	pelvis_tilt	pelvis_list	pelvis_rotation	pelvis_tx	pelvis_ty	pelvis_tz	hip_flexion_r	hip_adduction_r	hip_rotation_r	knee_angle_r	ankle_angle_r	subtalar_angle_r	hip_flexion_l	hip_adduction_l	hip_rotation_l	knee_angle_l	ankle_angle_l	subtalar_angle_l	lumbar_extension	lumbar_bending	lumbar_rotation
      3.15000000	     -0.66199692	     -8.75342924	      7.27383690	      0.11097091	      0.96717946	     -0.25554822	      4.83437809	     12.21821793	     -2.81457907	    -17.23586111	     12.11925839	      0.77784674	     24.59791380	     -9.71642598	      5.59664990	    -46.71279235	     12.53671304	     -1.32820981	     -1.86523438	      8.04705203	     -2.96363856
      3.16000000	     -0.69872162	     -8.68365221	      7.13232406	      0.11842401	      0.96667646	     -0.25567532	      4.21121979	     12.20186564	     -2.60334809	    -17.00262723	     12.45473607	      0.75888130	     25.19101137	     -9.49370856	      5.41484683	    -45.25528949	     12.44341543	     -1.25469547	     -1.89184880	      7.98000623	     -2.82300066
      3.17000000	     -0.74492970	     -8.60907585	      6.99229868	      0.12586500	      0.96608428	     -0.25586796	      3.62011242	     12.17027939	     -2.40773264	    -16.80696975	     12.79591007	      0.73895315	     25.75811842	     -9.25725273	      5.25738484	    -43.75803929	     12.25826912	     -1.17329187	     -1.90811760	      7.90625617	     -2.69605107
      3.18000000	     -0.79812142	     -8.52906936	      6.85454989	      0.13330390	      0.96541008	     -0.25612393	      3.05426211	     12.12340681	     -2.22783594	    -16.64279251	     13.14429765	      0.71970100	     26.29029051	     -9.00470223	      5.13960999	    -42.21473331	     11.98151693	     -1.08211692	     -1.91509368	      7.82574527	     -2.57893067
      3.19000000	     -0.86173309	     -8.44100240	      6.72069398	      0.14073792	      0.96465872	     -0.25646646	      2.51534098	     12.05639728	     -2.06160170	    -16.50679053	     13.49548207	      0.70132368	     26.78567696	     -8.72925333	      5.07488787	    -40.61886888	     11.60629452	     -0.98104298	     -1.91199685	      7.73797646	     -2.47343858
      3.20000000	     -0.93126698	     -8.34479610	      6.58862428	      0.14817245	      0.96383949	     -0.25687441	      1.99826568	     11.97271269	     -1.90370714	    -16.39990640	     13.85062422	      0.68645552	     27.23110749	     -8.43213762	      5.07924989	    -38.96207258	     11.14060693	     -0.87302669	     -1.90234764	      7.64187285	     -2.38093165
      3.21000000	     -1.01111903	     -8.24179000	      6.45958960	      0.15561668	      0.96295371	     -0.25734853	      1.50363660	     11.87318829	     -1.75551587	    -16.31459186	     14.20526610	      0.67496719	     27.62767062	     -8.11399818	      5.17072739	    -37.23948313	     10.58678992	     -0.76310474	     -1.88048266	      7.53639355	     -2.30100389
      3.22000000	     -1.10178810	     -8.13491453	      6.33311414	      0.16307054	      0.96200389	     -0.25789321	      1.03172647	     11.76067262	     -1.61508941	    -16.25025911	     14.55620873	      0.66667722	     27.97159786	     -7.78032011	      5.36218874	    -35.44705846	      9.96348993	     -0.65854905	     -1.84705203	      7.42708353	     -2.23153670
      3.23000000	     -1.20175388	     -8.02206038	      6.20657865	      0.17054824	      0.96099744	     -0.25847775	      0.57840843	     11.63579649	     -1.47796218	    -16.20454133	     14.90374692	      0.66298490	     28.25460145	     -7.43771190	      5.66001943	    -33.57904277	      9.29091204	     -0.56777954	     -1.80320504	      7.30655704	     -2.17460192
      3.24000000	     -1.30982132	     -7.91118447	      6.07835776	      0.17805504	      0.95993819	     -0.25911808	      0.14295276	     11.50619492	     -1.33892099	    -16.17843976	     15.24620269	      0.66497032	     28.47461740	     -7.09858302	      6.07524899	    -31.63822441	      8.60455355	     -0.50138011	     -1.74975558	      7.18803020	     -2.12167965
      3.25000000	     -1.40949034	     -7.80016728	      5.94250556	      0.18563004	      0.95885402	     -0.25978191	     -0.31103056	     11.37481064	     -1.17195373	    -16.14508075	     15.59587552	      0.69909878	     28.60835783	     -6.77867737	      6.59404382	    -29.62571621	      7.93814168	     -0.51224213	     -1.70337747	      7.06625708	     -2.06946332
      3.26000000	     -1.54731240	     -7.70299076	      5.80319944	      0.19321661	      0.95767809	     -0.26046189	     -0.68959519	     11.24857355	     -1.03552364	    -16.16887906	     15.90586504	      0.70295587	     28.72113923	     -6.48927545	      7.23136014	    -27.55966486	      7.30982859	     -0.49065524	     -1.61482742	      6.95133105	     -2.02950302
      3.27000000	     -1.67460222	     -7.61740729	      5.65097148	      0.20089250	      0.95647695	     -0.26113160	     -1.08588039	     11.13494866	     -0.86837744	    -16.19131071	     16.21539327	      0.72389977	     28.75774784	     -6.25461558	      7.94527407	    -25.45405625	      6.77223076	     -0.52662559	     -1.53371969	      6.84276366	     -1.98397532
      3.28000000	     -1.79884545	     -7.55767296	      5.48073636	      0.20867115	      0.95523960	     -0.26178737	     -1.49319075	     11.04738718	     -0.67021096	    -16.20884752	     16.51518200	      0.77282540	     28.73863575	     -6.09656987	      8.71195650	    -23.33683789	      6.34822355	     -0.63541746	     -1.44996273	      6.75893886	     -1.91696304
      3.29000000	     -1.93656782	     -7.52720105	      5.29497696	      0.21651172	      0.95393627	     -0.26240722	     -1.86082169	     10.98871942	     -0.45800459	    -16.27410469	     16.78318647	      0.81396652	     28.70594595	     -6.02183033	      9.49213501	    -21.24951530	      6.04912283	     -0.71419201	     -1.34995357	      6.69915773	     -1.86776405
      3.30000000	     -2.07601747	     -7.53389474	      5.08621661	      0.22446173	      0.95258824	     -0.26298347	     -2.22857354	     10.96877706	     -0.20329184	    -16.34452550	     17.02370706	      0.86723470	     28.66417020	     -6.04379858	     10.23461152	    -19.24034407	      5.88124471	     -0.79210609	     -1.24172711	      6.67246456	     -1.80905784
      3.31000000	     -2.20101317	     -7.57330289	      4.85531730	      0.23254337	      0.95121503	     -0.26353063	     -2.61564472	     10.98079877	      0.07417409	    -16.41956514	     17.25835410	      0.95348084	     28.61318693	     -6.15228777	     10.89806122	    -17.36109044	      5.85907798	     -0.89297885	     -1.14174467	      6.67642871	     -1.70662585
      3.32000000	     -2.33577455	     -7.64666273	      4.60217006	      0.24071850	      0.94979551	     -0.26405263	     -2.97509958	     11.02534828	      0.39349720	    -16.53436010	     17.44982394	      1.04502644	     28.60223981	     -6.33473131	     11.43860104	    -15.66516218	      5.94519359	     -0.94079280	     -1.02883646	      6.71263018	     -1.62213031
      3.33000000	     -2.49849378	     -7.75066222	      4.33855375	      0.24899173	      0.94830338	     -0.26458066	     -3.28855370	     11.09439644	      0.70262769	    -16.68505507	     17.64486397	      1.09956593	     28.66981678	     -6.56201725	     11.86073842	    -14.20923549	      6.11146573	     -0.93523434	     -0.87812500	      6.77591009	     -1.52109576
      3.34000000	     -2.59692447	     -7.85326350	      4.04304067	      0.25741802	      0.94691063	     -0.26514571	     -3.67649784	     11.15700234	      1.09643510	    -16.84962696	     17.77501222	      1.25112152	     28.69496582	     -6.81320785	     12.09304581	    -13.00255652	      6.38194116	     -0.95613209	     -0.80050288	      6.84776771	     -1.41560066
      3.35000000	     -2.69365571	     -7.94914329	      3.74111432	      0.26600784	      0.94552472	     -0.26577798	     -4.06070611	     11.19885850	      1.48184274	    -17.04409347	     17.89947770	      1.46799263	     28.76078070	     -7.04774044	     12.18027262	    -12.09156522	      6.69865457	     -0.97289272	     -0.71453912	      6.91127157	     -1.29448886
      3.36000000	     -2.80334436	     -8.05447685	      3.43840790	      0.27469591	      0.94414063	     -0.26649547	     -4.41555325	     11.23956750	      1.85929016	    -17.27340366	     18.01315406	      1.64122164	     28.88427695	     -7.26512306	     12.17701610	    -11.48072749	      6.97335407	     -0.98263450	     -0.60990471	      6.98604034	     -1.17528287
      3.37000000	     -2.89014457	     -8.12802585	      3.11329058	      0.28353591	      0.94283502	     -0.26729395	     -4.78437865	     11.23373289	      2.28443053	    -17.54439247	     18.07426240	      1.93347294	     29.01329100	     -7.43542607	     12.03310225	    -11.18382697	      7.25189097	     -1.00933463	     -0.52863447	      7.03094956	     -1.05417803
      3.38000000	     -2.97156061	     -8.17882411	      2.79716868	      0.29250893	      0.94158663	     -0.26820880	     -5.14050846	     11.18964198	      2.68631857	    -17.85935709	     18.11142986	      2.27745001	     29.16235960	     -7.54800706	     11.84684341	    -11.18053225	      7.42927823	     -1.05398104	     -0.44601144	      7.05122825	     -0.93652037
      3.39000000	     -3.05728187	     -8.18687038	      2.49785311	      0.30166472	      0.94040364	     -0.26928671	     -5.48839685	     11.08079872	      3.07064396	    -18.19589462	     18.17336776	      2.91431504	     29.30208648	     -7.58070081	     11.65231060	    -11.39932783	      7.48379321	     -1.14149195	     -0.34231735	      7.02944692	     -0.85226664
      3.40000000	     -3.14219544	     -8.19061959	      2.18734487	      0.31095020	      0.93927383	     -0.27042593	     -5.80437964	     10.96377066	      3.45877596	    -18.59664053	     18.13074488	      3.21994694	     29.46686488	     -7.58524467	     11.42862357	    -11.89007531	      7.49476836	     -1.23004708	     -0.23260330	      7.00229187	     -0.74813297
